<svg width="174" height="66" viewBox="0 0 174 66" fill="none" xmlns="http://www.w3.org/2000/svg">
<path fill-rule="evenodd" clip-rule="evenodd" d="M28.959 28.5216C30.3799 28.5216 31.6083 28.8257 32.6436 29.4347C33.699 30.0437 34.5108 30.8963 35.0791 31.9923C35.6678 33.0885 35.9619 34.3777 35.9619 35.8595V36.9249L24.4443 36.9513C24.5385 38.4041 24.9365 39.5528 25.6396 40.3966C26.4516 41.3507 27.6192 41.8273 29.1416 41.8273C30.258 41.8273 31.1714 41.6039 31.8818 41.1574C32.5922 40.7108 33.0699 40.0616 33.3135 39.2091H35.9932C35.6278 40.7922 34.8458 42.0199 33.6484 42.8927C32.4508 43.7656 30.9282 44.2023 29.0811 44.2023C27.6398 44.2023 26.3606 43.8773 25.2441 43.2277C24.1278 42.5578 23.2552 41.6444 22.626 40.4874C21.9967 39.3101 21.6816 37.9501 21.6816 36.4074C21.6817 34.8445 21.9859 33.4743 22.5947 32.297C23.224 31.1197 24.0775 30.1964 25.1533 29.5265C26.2494 28.8567 27.5178 28.5216 28.959 28.5216ZM44.4238 28.5216C45.6621 28.5216 46.7379 28.745 47.6514 29.1915C48.5851 29.6178 49.306 30.277 49.8135 31.1701C50.3413 32.0429 50.6055 33.1496 50.6055 34.4894V43.8371H48.1689L47.8643 41.4318C47.4786 42.2841 46.8093 42.9644 45.8555 43.4718C44.9218 43.959 43.8558 44.2022 42.6582 44.2023C41.075 44.2023 39.8265 43.7863 38.9131 42.9542C38.02 42.1221 37.5733 41.036 37.5732 39.6964C37.5732 38.3364 38.0598 37.2496 39.0342 36.4376C40.0085 35.6054 41.3687 35.1188 43.1143 34.9767L47.8037 34.6115V34.1847C47.8037 33.3525 47.6512 32.6924 47.3467 32.2052C47.0422 31.698 46.6263 31.3427 46.0986 31.1398C45.5709 30.9165 44.9716 30.8048 44.3018 30.8048C43.1043 30.8049 42.1708 31.0591 41.501 31.5665C40.8515 32.0537 40.5264 32.7537 40.5264 33.6671H38.0293C38.0293 32.6319 38.2935 31.7285 38.8213 30.9572C39.3491 30.1858 40.0899 29.5866 41.0439 29.1603C42.0183 28.734 43.145 28.5216 44.4238 28.5216ZM84.8818 28.5216C86.3028 28.5216 87.5311 28.8257 88.5664 29.4347C89.6219 30.0437 90.4336 30.8963 91.002 31.9923C91.5906 33.0885 91.8848 34.3777 91.8848 35.8595V36.9249L80.3672 36.9513C80.4614 38.4041 80.8603 39.5528 81.5635 40.3966C82.3754 41.3504 83.5423 41.8272 85.0645 41.8273C86.1808 41.8273 87.0942 41.6039 87.8047 41.1574C88.5151 40.7108 88.9927 40.0616 89.2363 39.2091H91.916C91.5506 40.7922 90.7687 42.0199 89.5713 42.8927C88.3737 43.7656 86.8511 44.2023 85.0039 44.2023C83.5627 44.2023 82.2835 43.8773 81.167 43.2277C80.0507 42.5578 79.178 41.6444 78.5488 40.4874C77.9196 39.3101 77.6045 37.9501 77.6045 36.4074C77.6045 34.8444 77.9096 33.4743 78.5186 32.297C79.1478 31.1197 80.0003 30.1964 81.0762 29.5265C82.1723 28.8567 83.4407 28.5216 84.8818 28.5216ZM115.68 28.5216C117.101 28.5216 118.329 28.8258 119.364 29.4347C120.42 30.0437 121.232 30.8962 121.801 31.9923C122.389 33.0885 122.684 34.3777 122.684 35.8595V36.9249L111.165 36.9513C111.259 38.4042 111.658 39.5528 112.361 40.3966C113.173 41.3505 114.341 41.8273 115.863 41.8273C116.98 41.8272 117.893 41.6039 118.604 41.1574C119.314 40.7108 119.791 40.0614 120.034 39.2091H122.714C122.348 40.7923 121.567 42.0199 120.369 42.8927C119.171 43.7656 117.649 44.2023 115.802 44.2023C114.361 44.2023 113.082 43.8772 111.966 43.2277C110.849 42.5578 109.976 41.6445 109.347 40.4874C108.717 39.3101 108.402 37.95 108.402 36.4074C108.402 34.8444 108.707 33.4743 109.316 32.297C109.946 31.1197 110.798 30.1964 111.874 29.5265C112.97 28.8567 114.239 28.5217 115.68 28.5216ZM130.292 28.5216C131.388 28.5216 132.332 28.7141 133.124 29.0998C133.936 29.4854 134.565 30.0238 135.012 30.714C135.479 31.4041 135.723 32.2259 135.743 33.1798H133.002C132.982 32.4086 132.728 31.8102 132.241 31.3839C131.754 30.9577 131.074 30.7443 130.201 30.7443C129.308 30.7443 128.618 30.9368 128.131 31.3224C127.644 31.708 127.4 32.2358 127.399 32.9054C127.399 33.9 128.13 34.581 129.592 34.9464L132.211 35.5851C133.469 35.8693 134.414 36.3369 135.043 36.9865C135.672 37.6157 135.986 38.4785 135.986 39.5744C135.986 40.5079 135.733 41.3298 135.226 42.0402C134.718 42.7304 134.017 43.2688 133.124 43.6544C132.251 44.0198 131.216 44.2023 130.019 44.2023C128.273 44.2023 126.882 43.7765 125.847 42.924C124.811 42.0714 124.294 40.9338 124.294 39.5128H127.034C127.034 40.2639 127.308 40.8631 127.856 41.3097C128.404 41.736 129.145 41.9493 130.079 41.9494C131.094 41.9494 131.876 41.7559 132.424 41.3703C132.972 40.9643 133.246 40.4268 133.246 39.757C133.246 39.2698 133.094 38.864 132.789 38.5392C132.505 38.2144 131.977 37.9502 131.206 37.7472L128.587 37.1378C127.268 36.8131 126.283 36.3163 125.634 35.6466C125.005 34.9767 124.689 34.0934 124.689 32.9972C124.689 32.0838 124.924 31.2921 125.391 30.6222C125.878 29.9525 126.537 29.4348 127.369 29.0695C128.222 28.7041 129.196 28.5217 130.292 28.5216ZM143.565 28.5216C144.662 28.5216 145.606 28.7141 146.397 29.0998C147.209 29.4854 147.839 30.0239 148.285 30.714C148.752 31.4041 148.995 32.226 149.016 33.1798H146.275C146.255 32.4085 146.001 31.8102 145.514 31.3839C145.026 30.9576 144.346 30.7443 143.474 30.7443C142.581 30.7443 141.89 30.9368 141.403 31.3224C140.916 31.708 140.673 32.2358 140.673 32.9054C140.673 33.9001 141.404 34.581 142.865 34.9464L145.483 35.5851C146.742 35.8693 147.686 36.3369 148.315 36.9865C148.945 37.6157 149.26 38.4783 149.26 39.5744C149.26 40.508 149.005 41.3298 148.498 42.0402C147.991 42.7303 147.291 43.2688 146.397 43.6544C145.525 44.0198 144.489 44.2023 143.291 44.2023C141.546 44.2022 140.155 43.7763 139.12 42.924C138.085 42.0714 137.567 40.9338 137.567 39.5128H140.308C140.308 40.2639 140.582 40.8631 141.13 41.3097C141.678 41.7359 142.419 41.9494 143.353 41.9494C144.367 41.9493 145.149 41.7559 145.697 41.3703C146.245 40.9643 146.519 40.4266 146.519 39.757C146.519 39.2699 146.367 38.8639 146.062 38.5392C145.778 38.2144 145.25 37.9502 144.479 37.7472L141.86 37.1378C140.541 36.813 139.556 36.3165 138.906 35.6466C138.277 34.9768 137.963 34.0934 137.963 32.9972C137.963 32.0838 138.196 31.2921 138.663 30.6222C139.15 29.9523 139.81 29.4349 140.643 29.0695C141.495 28.7041 142.469 28.5216 143.565 28.5216ZM57.9707 28.9474H60.8936V31.3527H57.9707V43.8371H55.1084V31.3527H52.1855V28.9474H55.1084V24.2892H57.9707V28.9474ZM65.3369 31.2316C65.8038 30.4197 66.4729 29.7695 67.3457 29.2824C68.2185 28.7749 69.2337 28.5217 70.3906 28.5216C72.2785 28.5216 73.6893 29.08 74.623 30.1964C75.5567 31.3128 76.0243 32.8246 76.0244 34.7326V43.8371H73.1621V35.3722C73.1621 34.3574 73.0095 33.5456 72.7051 32.9367C72.4209 32.3075 72.005 31.8507 71.457 31.5665C70.9293 31.2824 70.31 31.1398 69.5996 31.1398C68.6861 31.1398 67.9045 31.3432 67.2549 31.7492C66.6256 32.1551 66.148 32.7035 65.8232 33.3937C65.4986 34.0837 65.3369 34.8549 65.3369 35.7072V43.8068H62.4746V24.2697H65.3369V31.2316ZM101.364 31.3527H96.3584V43.8371H93.4971V31.3527H93.4961V28.9474H101.364V31.3527ZM106.036 43.8371H103.174V24.2892H106.036V43.8371ZM22.3213 27.0294H12.8193V34.5197L20.1807 34.5128V36.796L12.8193 36.8029V43.8039H9.5V24.2892H22.3213V27.0294ZM44.0283 36.9249C42.7701 37.0467 41.8565 37.3411 41.2881 37.8078C40.74 38.2746 40.4658 38.8739 40.4658 39.6046C40.4658 40.3963 40.7291 40.9955 41.2568 41.4015C41.8049 41.7872 42.5467 41.9796 43.4805 41.9796C44.8402 41.9796 45.9055 41.5736 46.6768 40.7619C47.4481 39.9296 47.834 38.8129 47.834 37.4123V36.6203L44.0283 36.9249ZM166.395 10.1193C166.639 9.97834 166.944 10.1539 166.944 10.4357V14.9347C166.944 15.0655 166.874 15.1867 166.761 15.2521L159.286 19.5675C159.173 19.633 159.103 19.7541 159.103 19.8849L159.102 24.383C159.102 24.665 159.407 24.8414 159.651 24.7003L166.395 20.8078C166.639 20.6668 166.944 20.8431 166.944 21.1251V25.6232C166.944 25.7541 166.874 25.8751 166.761 25.9406L159.284 30.257C159.171 30.3224 159.101 30.4436 159.101 30.5744L159.099 38.879C159.099 39.1608 158.794 39.337 158.55 39.1964L158.176 38.9806C158.062 38.9152 157.992 38.794 157.992 38.6632V36.5558C157.992 36.4249 157.923 36.3039 157.81 36.2384L154.572 34.3693C154.459 34.3038 154.389 34.1828 154.389 34.0519V29.5539C154.389 29.2718 154.694 29.0955 154.938 29.2365L157.444 30.6837C157.689 30.8246 157.994 30.6483 157.994 30.3664L157.995 25.8673C157.995 25.7364 157.925 25.6154 157.812 25.5499L154.651 23.7248C154.538 23.6593 154.468 23.5383 154.468 23.4074V18.9093C154.468 18.6275 154.773 18.451 155.018 18.5919L157.446 19.9943C157.69 20.1351 157.995 19.9588 157.995 19.6769V15.1798C157.995 15.0489 158.065 14.9279 158.179 14.8624L166.395 10.1193ZM28.959 30.9269C28.005 30.9269 27.1833 31.1403 26.4932 31.5665C25.8233 31.9725 25.3048 32.5808 24.9395 33.3927C24.7273 33.8794 24.5817 34.4279 24.5 35.0373H33.0996C33.0996 33.799 32.7247 32.8039 31.9736 32.0529C31.2226 31.3019 30.2175 30.9269 28.959 30.9269ZM84.8818 30.9269C83.9279 30.9269 83.1061 31.1403 82.416 31.5665C81.7462 31.9725 81.2277 32.5808 80.8623 33.3927C80.6502 33.8794 80.5046 34.4279 80.4229 35.0373H89.0234C89.0234 33.799 88.6475 32.8039 87.8965 32.0529C87.1454 31.3019 86.1403 30.9269 84.8818 30.9269ZM115.68 30.9269C114.726 30.927 113.904 31.1403 113.214 31.5665C112.544 31.9725 112.026 32.581 111.661 33.3927C111.449 33.8794 111.302 34.4279 111.221 35.0373H119.821C119.821 33.799 119.445 32.8039 118.694 32.0529C117.943 31.302 116.938 30.9269 115.68 30.9269Z" fill="black"/>
</svg>
